<svg xmlns="http://www.w3.org/2000/svg" id="Layer_1" data-name="Layer 1" viewBox="0 0 219.94 219.94"><defs><style>.cls-1{fill:#f7f0f0;}.cls-2{fill:#ec6548;}</style></defs><circle class="cls-1" cx="109.97" cy="109.97" r="109.97"></circle><path class="cls-2" d="M978.8,601.06l-6.12-2.36-3.51-3.51a1.23,1.23,0,0,0-.83-.36V592a13,13,0,0,0,3.31-6.54h0a3.54,3.54,0,0,0,.92-.07,3.66,3.66,0,0,0,2.85-3.64v-.93a3.67,3.67,0,0,0-1.12-2.66c1.13-6.08.22-11-2.64-14.32s-7.21-4.71-12.86-4.4a16.81,16.81,0,0,0-9.69,3.58c-1.46.19-5.62,1.24-5.62,7.07a31.36,31.36,0,0,0,.89,7.39,3.67,3.67,0,0,0-2.07,3.36v.9a3.67,3.67,0,0,0,2.85,3.65,3.54,3.54,0,0,0,.92.07h0a13,13,0,0,0,3.31,6.54v2.87a1.23,1.23,0,0,0-.83.36l-3.51,3.51-6.89,2.66a8.29,8.29,0,0,0-5.3,8.06l1,24.43A1.2,1.2,0,0,0,935,635h.05a1.19,1.19,0,0,0,1.15-1.25l-1-24.42a6,6,0,0,1,.24-1.89l3.9,3.91a5.85,5.85,0,0,1,1.72,4.16V633.8a1.21,1.21,0,0,0,2.41,0V615.51a8.21,8.21,0,0,0-2.43-5.86l-4.41-4.41A6,6,0,0,1,939,603.6l6.42-2.48,4.91,7.36a3.54,3.54,0,0,0,2.61,1.57l.36,0a3.57,3.57,0,0,0,1.84-.52l-1,24.2a1.2,1.2,0,0,0,1.15,1.25h.05a1.2,1.2,0,0,0,1.2-1.15l1-22.44h2.73l1,22.44a1.2,1.2,0,0,0,1.2,1.15h.05a1.2,1.2,0,0,0,1.15-1.25l-1.05-24.2a3.6,3.6,0,0,0,1.84.52l.36,0a3.54,3.54,0,0,0,2.61-1.57l4.91-7.36,5.66,2.19a1.31,1.31,0,0,0,.43.08,1.21,1.21,0,0,0,.43-2.33ZM948.44,585a2.39,2.39,0,0,0-2.49-2,1.62,1.62,0,0,1-.31,0,1.29,1.29,0,0,1-.93-1.29v-.91a1.25,1.25,0,0,1,.94-1.26,1.16,1.16,0,0,1,1.14.43,1.64,1.64,0,0,0,.86.61,1.73,1.73,0,0,0,1.48-.24,9.26,9.26,0,0,0,2.46-2.6,1.2,1.2,0,0,0-2-1.29,6.9,6.9,0,0,1-1.34,1.55,3.52,3.52,0,0,0-1.41-.76,28.92,28.92,0,0,1-.92-7.19c0-2,.61-3.34,1.8-4.1a4.16,4.16,0,0,1,1.92-.61,1.21,1.21,0,0,0,.83-.33,14.22,14.22,0,0,1,8.49-3.21c4.88-.27,8.66,1,10.91,3.57s3,6.69,2.2,11.75a5.76,5.76,0,0,0-1.16.08l-1.21-2.89a1.2,1.2,0,0,0-1.41-.7c-.12,0-11.81,3-16.73-3.12a1.2,1.2,0,1,0-1.88,1.5c5,6.23,15,4.83,18.19,4.18l.94,2.25a2,2,0,0,0,2.32,1.19,2.74,2.74,0,0,1,1-.07,1.26,1.26,0,0,1,.94,1.24v.92a1.3,1.3,0,0,1-.93,1.3,1.62,1.62,0,0,1-.31,0,2.39,2.39,0,0,0-2.49,2,10.6,10.6,0,0,1-20.85,0Zm5.71,22.35a1.18,1.18,0,0,1-.94.34,1.16,1.16,0,0,1-.85-.51l-4.94-7.42,2.05-2.05,7.64,6.68ZM957.6,609l.08-1.82,1.18-1.18,1.19,1.18.08,1.82Zm1.26-6.3-7.06-6.19V594a13,13,0,0,0,14.13,0v2.55Zm6.51,4.44a1.16,1.16,0,0,1-1.79.17l-3-3,7.64-6.68,2,2.05Z" transform="translate(-850.06 -490.42)"></path><path class="cls-2" d="M1007.22,615.81a5.06,5.06,0,0,0-5.06-5h-7.79V608.1a3.78,3.78,0,0,0-3.78-3.77h-7.7a3.78,3.78,0,0,0-3.78,3.77v2.66h-7.79a5.06,5.06,0,0,0-5.06,5v3.57a6.37,6.37,0,0,0,1.29,3.75V636.5a4.93,4.93,0,0,0,4.92,4.93H1001a4.93,4.93,0,0,0,4.92-4.93V623.13a6.37,6.37,0,0,0,1.29-3.75v-3.57Zm-25.7-7.71h0a1.37,1.37,0,0,1,1.37-1.37h7.7A1.37,1.37,0,0,1,992,608.1v2.66H981.52Zm23.29,11.28c0,2.07-1.95,4.11-5.3,5.64v-.21a1.21,1.21,0,0,0-1.21-1.21h-5.14a1.21,1.21,0,0,0-1.2,1.21v3.85a3.78,3.78,0,0,0,7.55,0v-1a18.7,18.7,0,0,0,4-2.15v11A2.52,2.52,0,0,1,1001,639H972.47A2.52,2.52,0,0,1,970,636.5v-11a18.28,18.28,0,0,0,4,2.16v1a3.77,3.77,0,0,0,7.45.85,38.76,38.76,0,0,0,5.32.35c.44,0,.88,0,1.32,0a1.2,1.2,0,1,0-.07-2.4l-1.25,0a37.2,37.2,0,0,1-5.22-.36v-2.29a1.21,1.21,0,0,0-1.21-1.21h-5.13a1.21,1.21,0,0,0-1.21,1.21V625c-3.35-1.53-5.3-3.57-5.3-5.64v-3.57a2.65,2.65,0,0,1,2.65-2.65h30.84a2.65,2.65,0,0,1,2.65,2.65ZM997.1,626v2.65a1.37,1.37,0,1,1-2.73,0V626Zm-20.72,2.65V626h2.73v2.65a1.37,1.37,0,1,1-2.73,0Z" transform="translate(-850.06 -490.42)"></path></svg>