<svg xmlns="http://www.w3.org/2000/svg" id="Layer_1" data-name="Layer 1" viewBox="0 0 219.94 219.94"><defs><style>.cls-1{fill:#ebf7f6;}.cls-2{fill:#009f90;}</style></defs><circle class="cls-1" cx="109.97" cy="109.97" r="109.97"></circle><path class="cls-2" d="M976.46,610.89a68.15,68.15,0,0,0,26.81-54.15,1.32,1.32,0,0,0-1.32-1.31,67.85,67.85,0,0,0-41.8,14.37,69.08,69.08,0,0,0-12.31,12.39,6.56,6.56,0,0,1-8.05-.93,9.16,9.16,0,0,0-12.95,0l-13,12.84a1.32,1.32,0,0,0,0,1.87h0l7.54,7.45a13,13,0,0,0,14.71,2.43v0a1.28,1.28,0,0,0,.34,1.27l3.79,3.8-9.28,2a1.31,1.31,0,0,0-.66,2.22l4.67,4.67a11.54,11.54,0,0,0-3.4-1.36c-.38-.09-.76-.15-1.13-.2a10.85,10.85,0,0,0-1.4-.09,11.51,11.51,0,0,0-8.29,3.41,11.81,11.81,0,0,0-3.54,8.45,1.32,1.32,0,0,0,1.29,1.31l1,0a12.57,12.57,0,0,0-2.25,9.2,1.32,1.32,0,0,0,1.29,1.06h3.6a1.32,1.32,0,1,0,0-2.63h-2.4a10,10,0,0,1,3.54-7.89,1.32,1.32,0,0,0-.84-2.3l-2.49-.07a9.22,9.22,0,0,1,2.66-5.29,9,9,0,0,1,6.36-2.65H929q.31,0,.63,0a6.08,6.08,0,0,0-3,4.5l-.75,6.1A1.32,1.32,0,0,0,927,632.9h.32l6.1-.76a6.11,6.11,0,0,0,4.51-2.95c0,.23,0,.47,0,.71a9.08,9.08,0,0,1-2.67,6.44,1.32,1.32,0,0,0,1.84,1.89l0,0a11.73,11.73,0,0,0,3.35-9.75c0-.37-.11-.74-.19-1.11a11.6,11.6,0,0,0-1.38-3.45l4.57,4.57a1.33,1.33,0,0,0,1.87,0,1.23,1.23,0,0,0,.34-.62l2.25-9.06,3.41,3.41a1.32,1.32,0,0,0,1.27.34l.23-.06a12.94,12.94,0,0,0,2.36,14.86l7.44,7.59a1.41,1.41,0,0,0,.94.44h0a1.41,1.41,0,0,0,.94-.44l12.84-13a9.19,9.19,0,0,0,0-13A6.57,6.57,0,0,1,976.46,610.89Zm24.16-52.82A65.33,65.33,0,0,1,999.29,570a27.27,27.27,0,0,1-10.61-10.56A64.8,64.8,0,0,1,1000.62,558.07ZM923.2,601.54,916.61,595l12.09-11.91a6.52,6.52,0,0,1,9.23,0,9.2,9.2,0,0,0,7.34,2.63,68.28,68.28,0,0,0-8,16.17A10.32,10.32,0,0,1,923.2,601.54ZM936.05,627a3.48,3.48,0,0,1-2.91,2.5l-4.42.55.54-4.42a3.51,3.51,0,0,1,2.59-2.94,3.47,3.47,0,0,1,4.2,4.31Zm7.71-2.08-10-9.94,8.59-1.82,3.42,3.41Zm9-5.16-13.94-13.94c.23-.83.48-1.65.75-2.47l0,0h0a66.11,66.11,0,0,1,40.82-41.62c1.86-.66,3.74-1.22,5.64-1.7a30,30,0,0,0,12.67,12.61,65.44,65.44,0,0,1-45.95,47.15ZM975.56,630l-11.91,12.09-6.51-6.6a10.3,10.3,0,0,1-.23-14.22,67.88,67.88,0,0,0,16-7.85,9.23,9.23,0,0,0,2.63,7.34,6.54,6.54,0,0,1,0,9.24Z" transform="translate(-850.06 -490.42)"></path><path class="cls-2" d="M984,611.56a1.33,1.33,0,0,0,.84-.3c.94-.78,1.87-1.59,2.77-2.42a1.32,1.32,0,1,0-1.77-2l0,0c-.86.79-1.76,1.57-2.66,2.32a1.32,1.32,0,0,0-.17,1.85,1.29,1.29,0,0,0,1,.48Z" transform="translate(-850.06 -490.42)"></path><path class="cls-2" d="M1005.72,576.9a1.31,1.31,0,0,0-1.64.88h0a65.93,65.93,0,0,1-4.27,10.63c-.63,1.24-1.31,2.48-2,3.68-.88,1.48-1.82,2.94-2.81,4.34a65.18,65.18,0,0,1-5.11,6.38,1.3,1.3,0,0,0,.09,1.85,1.32,1.32,0,0,0,1.86-.08,68.82,68.82,0,0,0,5.31-6.63c1-1.46,2-3,2.92-4.52.74-1.25,1.45-2.54,2.11-3.83a67.76,67.76,0,0,0,4.44-11.06A1.31,1.31,0,0,0,1005.72,576.9Z" transform="translate(-850.06 -490.42)"></path></svg>