<svg xmlns="http://www.w3.org/2000/svg" id="Layer_1" data-name="Layer 1" viewBox="0 0 180 180"><circle style="fill:#009f90;" cx="90" cy="90" r="90"></circle><path style="fill:#aee567;stroke:#aee567;stroke-miterlimit:10;" d="M744.66,379.19a17.41,17.41,0,0,0-17.17-17.61,17.17,17.17,0,0,0-15.72,10.56,17.65,17.65,0,0,0,3.13,34.92,17.17,17.17,0,0,0,15.71-10.55A17.48,17.48,0,0,0,744.66,379.19ZM714.9,405.8a16.4,16.4,0,0,1-3.66-32.27,17.94,17.94,0,0,0,3.19,17.1.62.62,0,0,0,.87.07.64.64,0,0,0,.06-.88,16.63,16.63,0,0,1-2.72-16.55,15.31,15.31,0,0,1,2.26-.19,16.37,16.37,0,0,1,0,32.72Zm16.24-10.7a18,18,0,0,0,.93-5.66,17.41,17.41,0,0,0-17.17-17.61,15.43,15.43,0,0,0-1.67.09,15.91,15.91,0,0,1,14.26-9.09,16.4,16.4,0,0,1,3.65,32.27Z" transform="translate(-630.04 -310.12)"></path><path style="fill:#aee567;stroke:#aee567;stroke-miterlimit:10;stroke-width:2px;" d="M718.51,391.5a2,2,0,1,0,1.92,2A1.94,1.94,0,0,0,718.51,391.5Zm0,2.68a.71.71,0,1,1,.69-.71A.7.7,0,0,1,718.51,394.18Z" transform="translate(-630.04 -310.12)"></path><path style="fill:#c8e8e3;" d="M742.3,416.74H697.39a.72.72,0,1,1,0-1.43H742.3a.72.72,0,1,1,0,1.43Z" transform="translate(-630.04 -310.12)"></path><path style="fill:#c8e8e3;" d="M742.3,426.33H697.39a.72.72,0,1,1,0-1.43H742.3a.72.72,0,1,1,0,1.43Z" transform="translate(-630.04 -310.12)"></path><path style="fill:#c8e8e3;" d="M742.3,435.92H697.39a.72.72,0,1,1,0-1.43H742.3a.72.72,0,1,1,0,1.43Z" transform="translate(-630.04 -310.12)"></path><path style="fill:#c8e8e3;" d="M753.17,350.55H686.92a6.32,6.32,0,0,0-6.31,6.31v86.51a6.32,6.32,0,0,0,6.31,6.31h66.25a6.32,6.32,0,0,0,6.31-6.31V356.86A6.32,6.32,0,0,0,753.17,350.55Zm0,96.69H686.92a3.88,3.88,0,0,1-3.88-3.87V356.86a3.88,3.88,0,0,1,3.88-3.87h66.25a3.88,3.88,0,0,1,3.88,3.87v86.51A3.88,3.88,0,0,1,753.17,447.24Z" transform="translate(-630.04 -310.12)"></path></svg>